# xmcd CD database file
#
# Track frame offsets:
#	150
#	13040
#	26319
#	43128
#	60910
#	79510
#	97213
#	110368
#	125141
#	142851
#	162179
#	178534
#	194297
#
# Disc length: 2895 seconds
#
# Revision: 0
# Processed by: cddbd v1.5.1PL2 Copyright (c) Steve Scherf et al.
# Submitted via: CDex 1.51
#
DISCID=a20b4d0d
DTITLE=Wildseed - Wildseed
DYEAR=1900
DGENRE=Country
TTITLE0=The Fire
TTITLE1=I Can See It From Here
TTITLE2=My Friend
TTITLE3=Salamander Bay
TTITLE4=I Don't Wanna Come Home
TTITLE5=Picture Your Smile
TTITLE6=Don't Lie To Me
TTITLE7=Running River
TTITLE8=I'll Cry No More
TTITLE9=The Highway Home
TTITLE10=It's All Good
TTITLE11=Stuck In No Man's Land
TTITLE12=Something Went Wrong
EXTD=
EXTT0=
EXTT1=
EXTT2=
EXTT3=
EXTT4=
EXTT5=
EXTT6=
EXTT7=
EXTT8=
EXTT9=
EXTT10=
EXTT11=
EXTT12=
PLAYORDER=
